<svg width="20" height="16" viewBox="0 0 20 16" fill="none" xmlns="http://www.w3.org/2000/svg">
<path d="M13.9131 15.5273H2.33691C1.71732 15.5267 1.1233 15.2803 0.68518 14.8422C0.247064 14.404 0.000646282 13.81 0 13.1904V6.28174C0.000646282 5.66215 0.247064 5.06812 0.68518 4.63001C1.1233 4.19189 1.71732 3.94547 2.33691 3.94482H13.9131C14.5327 3.94547 15.1267 4.19189 15.5648 4.63001C16.0029 5.06812 16.2494 5.66215 16.25 6.28174V13.1904C16.2494 13.81 16.0029 14.404 15.5648 14.8422C15.1267 15.2803 14.5327 15.5267 13.9131 15.5273ZM2.33691 5.40967C2.10571 5.40993 1.88404 5.50189 1.72055 5.66538C1.55706 5.82887 1.4651 6.05053 1.46484 6.28174V13.1904C1.4651 13.4216 1.55706 13.6433 1.72055 13.8068C1.88404 13.9703 2.10571 14.0622 2.33691 14.0625H13.9131C14.1443 14.0622 14.366 13.9703 14.5294 13.8068C14.6929 13.6433 14.7849 13.4216 14.7852 13.1904V6.28174C14.7849 6.05053 14.6929 5.82887 14.5294 5.66538C14.366 5.50189 14.1443 5.40993 13.9131 5.40967H2.33691Z" fill="#FFBB38"/>
<path d="M17.1953 11.583H15.5176C15.3233 11.583 15.137 11.5058 14.9997 11.3685C14.8623 11.2311 14.7852 11.0448 14.7852 10.8506C14.7852 10.6563 14.8623 10.47 14.9997 10.3327C15.137 10.1953 15.3233 10.1182 15.5176 10.1182H17.1953C17.4264 10.1176 17.6478 10.0256 17.811 9.86211C17.9743 9.69865 18.0661 9.47713 18.0664 9.24609V2.3374C18.0663 2.10628 17.9745 1.88464 17.8112 1.72107C17.6479 1.5575 17.4264 1.46536 17.1953 1.46484H5.61914C5.38793 1.4651 5.16627 1.55706 5.00278 1.72055C4.83929 1.88404 4.74733 2.10571 4.74707 2.33691V4.67676C4.74707 4.87101 4.6699 5.0573 4.53255 5.19466C4.39519 5.33201 4.2089 5.40918 4.01465 5.40918C3.8204 5.40918 3.6341 5.33201 3.49675 5.19466C3.35939 5.0573 3.28223 4.87101 3.28223 4.67676V2.3374C3.28274 1.71773 3.5291 1.12357 3.96723 0.685353C4.40536 0.247131 4.99947 0.000646491 5.61914 0H17.1953C17.8148 0.000904928 18.4087 0.247504 18.8466 0.685698C19.2845 1.12389 19.5307 1.7179 19.5312 2.3374V9.24609C19.5306 9.86551 19.2843 10.4594 18.8464 10.8975C18.4085 11.3356 17.8147 11.5821 17.1953 11.583Z" fill="#FFBB38"/>
<path d="M15.5176 10.2925H0.732422C0.538172 10.2925 0.351877 10.2153 0.214521 10.078C0.0771656 9.94061 0 9.75431 0 9.56006V7.1001C0 6.90585 0.0771656 6.71955 0.214521 6.5822C0.351877 6.44484 0.538172 6.36768 0.732422 6.36768H15.5176C15.7118 6.36768 15.8981 6.44484 16.0355 6.5822C16.1728 6.71955 16.25 6.90585 16.25 7.1001V9.56006C16.25 9.75431 16.1728 9.94061 16.0355 10.078C15.8981 10.2153 15.7118 10.2925 15.5176 10.2925ZM1.46484 8.82764H14.7852V7.83252H1.46484V8.82764Z" fill="#FFBB38"/>
</svg>
